# Blender v3.3.1 OBJ File: 'caixinha pendrive.blend'
# www.blender.org
mtllib caixinha pendrive.mtl
o Cubo
v -0.399168 0.156798 0.244075
v -0.405000 0.457363 0.247500
v -0.399168 0.156798 -0.224677
v -0.399168 0.442929 -0.224677
v 0.399168 0.156798 0.244075
v 0.399168 0.442929 0.244075
v 0.399168 0.156798 -0.224677
v 0.399168 0.442929 -0.224677
v -0.405000 0.142363 -0.247500
v -0.405000 0.142363 0.247500
v -0.399168 0.442929 0.244075
v -0.405000 0.457363 -0.247500
v 0.405000 0.457363 -0.247500
v 0.405000 0.142363 -0.247500
v 0.405000 0.142363 0.247500
v 0.405000 0.457363 0.247500
v -0.399168 0.156798 0.244075
v -0.399168 0.442929 0.244075
v 0.399168 0.442929 0.244075
v 0.399168 0.156798 0.244075
v -0.399168 0.156798 -0.224677
v -0.399168 0.442929 -0.224677
v 0.399168 0.442929 -0.224677
v 0.399168 0.156798 -0.224677
v -0.399168 0.156798 0.244075
v -0.399168 0.442929 0.244075
v 0.399168 0.442929 0.244075
v 0.399168 0.156798 0.244075
v -0.399168 0.156798 -0.224677
v -0.399168 0.442929 -0.224677
v 0.399168 0.442929 -0.224677
v 0.399168 0.156798 -0.224677
v -0.384875 0.161921 0.235683
v -0.384875 0.437806 0.235683
v 0.384875 0.437806 0.235683
v 0.384875 0.161921 0.235683
v -0.384875 0.161921 -0.216285
v -0.384875 0.437806 -0.216285
v 0.384875 0.437806 -0.216285
v 0.384875 0.161921 -0.216285
vt 0.384797 1.000000
vt 0.384797 0.750000
vt 0.384797 0.750000
vt 0.384797 1.000000
vt 0.615203 0.000000
vt 0.615203 0.240203
vt 0.615203 0.240203
vt 0.615203 0.000000
vt 0.384797 0.509797
vt 0.615203 0.509797
vt 0.615203 0.509797
vt 0.384797 0.509797
vt 0.384797 0.509797
vt 0.384797 0.750000
vt 0.384797 1.000000
vt 0.615203 0.240203
vt 0.615203 0.000000
vt 0.384797 0.240203
vt 0.384797 0.240203
vt 0.384797 0.000000
vt 0.384797 0.000000
vt 0.615203 0.750000
vt 0.615203 1.000000
vt 0.615203 1.000000
vt 0.615203 0.750000
vt 0.384797 0.240203
vt 0.384797 0.000000
vt 0.615203 1.000000
vt 0.615203 0.750000
vt 0.615203 0.509797
vt 0.816597 0.265290
vt 0.808679 0.942775
vt 0.080599 0.940090
vt 0.088517 0.262606
vt 0.508178 0.739248
vt 0.758178 0.739248
vt 0.758178 0.796588
vt 0.508178 0.796588
vt 0.517975 0.681908
vt 0.517975 0.737001
vt 0.508178 0.681908
vt 0.748380 0.737001
vt 0.748380 0.681908
vt 0.758178 0.681908
vt 0.748380 0.798835
vt 0.517975 0.798835
vt 0.517975 0.853928
vt 0.508178 0.853928
vt 0.748380 0.853928
vt 0.758178 0.853928
vt 0.517975 0.911268
vt 0.508178 0.911268
vt 0.748380 0.911268
vt 0.758178 0.911268
vt 0.137814 0.774610
vt 0.368220 0.774610
vt 0.368220 0.829703
vt 0.137814 0.829703
vt 0.517975 0.386361
vt 0.748380 0.386361
vt 0.748380 0.441454
vt 0.517975 0.441454
vt 0.132251 0.412289
vt 0.362657 0.412289
vt 0.362657 0.469629
vt 0.132251 0.469629
vt 0.258178 0.796588
vt 0.258178 0.853928
vt 0.615203 0.509797
vt 0.384797 0.509797
vt 0.615203 0.750000
vt 0.615203 1.000000
vt 0.615203 0.240203
vt 0.615203 0.000000
vt 0.384797 0.750000
vt 0.384797 1.000000
vt 0.384797 0.240203
vt 0.384797 0.000000
vn 0.0000 0.0000 1.0000
vn 0.0000 1.0000 0.0000
vn 0.0000 0.0000 -1.0000
vn -0.9272 0.3746 0.0000
vn -0.9272 -0.3746 0.0000
vn -0.9689 0.0000 0.2476
vn 0.9689 0.0000 0.2476
vn 0.9272 0.3746 0.0000
vn 0.9272 -0.3746 0.0000
vn 0.0000 0.2308 0.9730
vn 0.0000 -0.2308 0.9730
vn -1.0000 0.0000 0.0000
vn 1.0000 0.0000 0.0000
vn 0.0000 -1.0000 0.0000
vn 0.5063 0.0000 0.8623
vn 0.3374 -0.9414 0.0000
vn 0.0000 -0.8535 0.5210
vn -0.3374 -0.9414 0.0000
vn 0.0000 0.8535 0.5210
vn 0.3374 0.9414 0.0000
vn -0.5063 0.0000 0.8623
vn -0.3374 0.9414 0.0000
usemtl Materiais
s off
f 1/1/1 5/2/1 20/3/1 17/4/1
f 11/5/1 4/6/1 22/7/1 18/8/1
f 7/9/1 8/10/1 23/11/1 24/12/1
f 20/3/1 24/12/1 32/13/1 28/14/1
f 17/4/1 20/3/1 28/14/1 25/15/1
f 18/8/1 22/7/1 30/16/1 26/17/1
f 5/2/1 7/9/1 24/12/1 20/3/1
f 4/6/1 3/18/1 21/19/1 22/7/1
f 3/18/1 1/20/1 17/21/1 21/19/1
f 6/22/1 11/23/1 18/24/1 19/25/1
f 8/10/1 6/22/1 19/25/1 23/11/1
f 22/7/1 21/19/1 29/26/1 30/16/1
f 21/19/1 17/21/1 25/27/1 29/26/1
f 19/25/1 18/24/1 26/28/1 27/29/1
f 23/11/1 19/25/1 27/29/1 31/30/1
f 24/12/1 23/11/1 31/30/1 32/13/1
usemtl Materiais.001
f 13/31/2 12/32/2 2/33/2 16/34/2
usemtl Materiais.002
f 9/35/3 12/36/3 13/37/3 14/38/3
f 1/39/4 3/40/4 9/35/4 10/41/4
f 4/42/5 11/43/5 2/44/5 12/36/5
f 3/40/6 4/42/6 12/36/6 9/35/6
f 8/45/7 7/46/7 14/38/7 13/37/7
f 7/46/8 5/47/8 15/48/8 14/38/8
f 6/49/9 8/45/9 13/37/9 16/50/9
f 5/47/10 1/51/10 10/52/10 15/48/10
f 11/53/11 6/49/11 16/50/11 2/54/11
f 33/55/12 34/56/12 38/57/12 37/58/12
f 40/59/13 39/60/13 35/61/13 36/62/13
f 36/63/1 35/64/1 34/65/1 33/66/1
usemtl Materiais.003
f 9/67/14 14/38/14 15/48/14 10/68/14
f 32/13/15 31/30/15 39/69/15 40/70/15
f 31/30/16 27/29/16 35/71/16 39/69/16
f 27/29/17 26/28/17 34/72/17 35/71/17
f 26/17/18 30/16/18 38/73/18 34/74/18
f 25/15/19 28/14/19 36/75/19 33/76/19
f 28/14/20 32/13/20 40/70/20 36/75/20
f 30/16/21 29/26/21 37/77/21 38/73/21
f 29/26/22 25/27/22 33/78/22 37/77/22
